<?xml version="1.0" encoding="UTF-8" standalone="no"?>
<svg xmlns="http://www.w3.org/2000/svg" xmlns:svg="http://www.w3.org/2000/svg" id="Layer_1" viewBox="0 0 576 127.84">
  <path d="M13.34,76.33c1.15,11.91,5.45,16.93,11.77,16.93s10.19-4.3,10.19-11.91c0-7.17-3.73-12.63-10.62-19.08l-9.33-9.33C6.03,44.33,1.86,35.58,1.86,25.11,1.86,9.76,11.48,0,24.96,0s21.52,10.19,23.1,25.68l-13.34,1.72c-.57-8.75-3.59-14.63-9.9-14.63-5.45,0-9.04,4.3-9.04,11.76,0,6.89,3.3,11.91,10.19,18.51l9.47,9.18c9.47,8.75,13.63,17.79,13.63,28.7,0,15.64-9.18,25.11-23.82,25.11S1.86,95.99,0,78.05l13.34-1.72Z" id="path1" style="fill:#027793;fill-opacity:1"/>
  <path d="M94.12,104.31h-11.91v-8.61h-.14c-5.6,6.31-10.33,9.76-16.07,9.76-7.75,0-10.9-6.03-10.9-14.78v-51.94l-.14-10.47h12.63l-.14,10.47v47.64c0,3.3,0,8.04,4.59,8.04,3.59,0,6.74-2.87,9.61-6.17v-49.5l-.14-10.47h12.63l-.14,10.47v55.1l.14,10.48Z" id="path2" style="fill:#027793;fill-opacity:1"/>
  <path d="M116.21,43.04v47.06c2.73,3.01,5.31,4.73,8.18,4.73,6.6,0,6.6-9.76,6.6-15.21v-27.69c0-6.6,0-14.2-6.31-14.2-3.16,0-5.88,2.01-8.47,5.31M103.73,28.27h11.91v7.03h.57c5.31-5.74,9.33-8.18,14.35-8.18,12.77,0,12.77,15.5,12.77,26.98v23.24c0,11.33-.14,28.12-13.2,28.12-5.02,0-8.89-2.58-13.92-7.75v19.66l.14,10.47h-12.63l.14-10.47V38.74l-.14-10.47Z" id="path3" style="fill:#027793;fill-opacity:1"/>
  <path d="M162.12,58.83h14.78v-3.01c0-11.62-.14-18.08-7.46-18.08s-7.32,6.46-7.32,18.08v3.01ZM162.12,68.15v8.61c0,11.33,0,18.08,7.32,18.08,7.89,0,7.89-7.6,7.89-14.06v-.28h11.91v.28c0,9.18-2.01,16.07-6.46,20.38-3.01,2.87-7.17,4.59-13.49,4.59s-10.19-1.58-13.2-4.59c-5.16-5.02-6.31-13.92-6.31-26.69v-16.36c0-12.77,1.15-21.67,6.31-26.69,3.01-3.01,7.17-4.59,13.34-4.59s10.33,1.58,13.34,4.59c5.17,5.02,6.46,13.92,6.46,26.69v10.04h-27.12Z" id="path4" style="fill:#027793;fill-opacity:1"/>
  <path d="M225.54,27.4v13.49c-1.87-.29-2.58-.29-3.73-.29-7.46,0-12.34,4.45-12.34,13.06v40.17l.14,10.47h-12.63l.14-10.47v-54.95l-.14-10.62h11.62v10.76h.57c3.73-7.03,9.76-11.91,14.2-11.91.57,0,1.43,0,2.15.29" id="path5" style="fill:#027793;fill-opacity:1"/>
  <polygon points="245.19 104.31 245.33 93.84 245.33 12.19 245.19 1.72 258.96 1.72 258.82 12.19 258.82 92.4 282.35 92.4 282.35 104.31 245.19 104.31" id="polygon5" style="fill:#027793;fill-opacity:1"/>
  <path d="M315.78,85.66v-23.24c-3.73,2.15-6.89,4.45-8.89,6.17-5.02,4.45-7.32,10.76-7.32,16.93s2.15,8.18,5.45,8.18c4.02,0,7.46-3.44,10.76-8.03M309.47,26.83c14.64,0,18.65,9.76,18.65,21.95v45.05c0,3.3.43,7.75.86,10.48h-12.2c-.29-1.87-.43-4.3-.72-9.04h-.58c-5.02,5.6-9.76,9.9-16.21,9.9-7.46,0-12.63-5.59-12.63-18.22,0-10.76,3.73-18.08,16.64-26.11,3.87-2.44,9.18-5.02,12.48-6.6v-6.6c0-5.31-1.29-10.47-6.89-10.47s-7.46,5.17-7.89,11.76h-12.34c.86-13.2,6.74-22.1,20.8-22.1" id="path6" style="fill:#027793;fill-opacity:1"/>
  <path d="M332.13,28.27h11.62l6.31,39.17c.57,3.16,1.15,7.75,1.43,10.9h.43c.29-2.87.86-7.17,1.43-10.19l7.18-39.89h9.33l7.03,39.89c.57,3.01,1.29,7.32,1.58,10.19h.43c.29-3.16.72-7.75,1.29-10.9l6.31-39.17h11.48l-13.77,76.04h-11.48l-6.03-36.59c-.57-3.01-1.15-7.17-1.43-10.04h-.43c-.29,2.87-1,7.03-1.43,10.04l-6.03,36.59h-11.62l-13.63-76.04Z" id="path7" style="fill:#027793;fill-opacity:1"/>
  <path d="M399.99,28.27h12.2l7.46,41.18,1.72,10.62h.43l1.58-10.62,7.32-41.18h12.05l-16.79,83.51c-2.01,9.9-7.75,16.07-17.51,16.07-2.87,0-5.88-.43-7.6-.72v-11.19c1.43.29,3.16.43,5.16.43,7.46,0,10.04-7.46,8.75-15.5l-14.78-72.6Z" id="path8" style="fill:#027793;fill-opacity:1"/>
  <path d="M457.81,58.83h14.78v-3.01c0-11.62-.14-18.08-7.46-18.08s-7.32,6.46-7.32,18.08v3.01ZM457.81,68.15v8.61c0,11.33,0,18.08,7.32,18.08,7.89,0,7.89-7.6,7.89-14.06v-.28h11.91v.28c0,9.18-2.01,16.07-6.46,20.38-3.01,2.87-7.17,4.59-13.49,4.59s-10.19-1.58-13.2-4.59c-5.17-5.02-6.31-13.92-6.31-26.69v-16.36c0-12.77,1.15-21.67,6.31-26.69,3.01-3.01,7.17-4.59,13.34-4.59s10.33,1.58,13.34,4.59c5.17,5.02,6.46,13.92,6.46,26.69v10.04h-27.12Z" id="path9" style="fill:#027793;fill-opacity:1"/>
  <path d="M521.23,27.4v13.49c-1.87-.29-2.58-.29-3.73-.29-7.46,0-12.34,4.45-12.34,13.06v40.17l.14,10.47h-12.63l.14-10.47v-54.95l-.14-10.62h11.62v10.76h.57c3.73-7.03,9.76-11.91,14.21-11.91.57,0,1.43,0,2.15.29" id="path10" style="fill:#027793;fill-opacity:1"/>
  <path d="M534.43,80.78c1.29,9.9,5.16,14.35,10.19,14.35,4.45,0,6.89-3.44,6.89-8.61,0-5.45-3.44-9.47-8.9-13.92l-7.17-6.03c-7.03-5.6-10.76-12.48-10.76-20.81,0-10.19,7.03-18.94,19.23-18.94,11.48,0,17.65,7.89,19.51,19.66l-11.48,1.87c-.72-5.88-3.16-10.9-8.18-10.9-4.02,0-7.03,2.73-7.03,7.89,0,4.59,2.44,8.04,7.61,12.34l7.03,6.03c7.03,5.6,12.48,12.91,12.48,22.24,0,11.76-7.03,19.66-19.66,19.66-10.04,0-19.23-6.89-21.23-22.53l11.48-2.3Z" id="path11" style="fill:#027793;fill-opacity:1"/>
  <path d="M570.73,26.83c3.22,0,5.27,2.37,5.27,5.17s-2.05,5.19-5.27,5.19-5.29-2.43-5.29-5.19,2.08-5.17,5.29-5.17M570.73,36.4c2.64,0,4.38-1.94,4.38-4.4s-1.74-4.41-4.38-4.41-4.41,1.95-4.41,4.41,1.73,4.4,4.41,4.4M571.84,32.39l1.46,1.97h-1.44l-1.32-1.83h-.38v1.83h-1.21v-5.02h2c1.16,0,1.88.56,1.88,1.52,0,.7-.37,1.27-.99,1.53M570.85,30.25h-.69v1.39h.69c.46,0,.77-.26.77-.71s-.31-.68-.77-.68" id="path12" style="fill:#027793;fill-opacity:1"/>
</svg>
